<svg width="80" height="80" viewBox="0 0 80 80" fill="none" xmlns="http://www.w3.org/2000/svg">
<g clip-path="url(#clip0_7_68)">
<path d="M60 24H55C55 22.6739 54.4732 21.4021 53.5355 20.4645C52.5979 19.5268 51.3261 19 50 19H47.5V16.5C47.5 14.5109 46.7098 12.6032 45.3033 11.1967C43.8968 9.79018 41.9891 9 40 9C38.0109 9 36.1032 9.79018 34.6967 11.1967C33.2902 12.6032 32.5 14.5109 32.5 16.5V19H30C28.6739 19 27.4021 19.5268 26.4645 20.4645C25.5268 21.4021 25 22.6739 25 24H20C18.0109 24 16.1032 24.7902 14.6967 26.1967C13.2902 27.6032 12.5 29.5109 12.5 31.5V81.5C12.5 83.4891 13.2902 85.3968 14.6967 86.8033C16.1032 88.2098 18.0109 89 20 89H42.5C43.163 89 43.7989 88.7366 44.2678 88.2678C44.7366 87.7989 45 87.163 45 86.5C45 85.837 44.7366 85.2011 44.2678 84.7322C43.7989 84.2634 43.163 84 42.5 84H20C19.337 84 18.7011 83.7366 18.2322 83.2678C17.7634 82.7989 17.5 82.163 17.5 81.5V31.5C17.5 30.837 17.7634 30.2011 18.2322 29.7322C18.7011 29.2634 19.337 29 20 29H25C25 30.3261 25.5268 31.5979 26.4645 32.5355C27.4021 33.4732 28.6739 34 30 34H50C51.3261 34 52.5979 33.4732 53.5355 32.5355C54.4732 31.5979 55 30.3261 55 29H60C60.663 29 61.2989 29.2634 61.7678 29.7322C62.2366 30.2011 62.5 30.837 62.5 31.5V51.5C62.5 52.163 62.7634 52.7989 63.2322 53.2678C63.7011 53.7366 64.337 54 65 54C65.663 54 66.2989 53.7366 66.7678 53.2678C67.2366 52.7989 67.5 52.163 67.5 51.5V31.5C67.5 29.5109 66.7098 27.6032 65.3033 26.1967C63.8968 24.7902 61.9891 24 60 24ZM37.5 16.5C37.5 15.837 37.7634 15.2011 38.2322 14.7322C38.7011 14.2634 39.337 14 40 14C40.663 14 41.2989 14.2634 41.7678 14.7322C42.2366 15.2011 42.5 15.837 42.5 16.5V19H37.5V16.5ZM30 29V24H50V26.5V29H30Z" fill="#04009A"/>
<path d="M42.5 69C41.9218 68.9966 41.3626 68.793 40.9177 68.4237C40.4728 68.0544 40.1696 67.5423 40.0599 66.9746C39.9501 66.4069 40.0405 65.8187 40.3157 65.3102C40.5909 64.8017 41.0338 64.4042 41.5691 64.1856C42.1044 63.967 42.6989 63.9406 43.2514 64.1111C43.8039 64.2816 44.2803 64.6382 44.5993 65.1204C44.9184 65.6027 45.0604 66.1805 45.0013 66.7557C44.9422 67.3309 44.6855 67.8678 44.275 68.275C43.7959 68.7318 43.1619 68.9907 42.5 69Z" fill="#77ACF1"/>
<path d="M27.5 71.5C27.171 71.5019 26.8448 71.4388 26.5402 71.3144C26.2356 71.19 25.9586 71.0067 25.725 70.775L23.225 68.275C22.7542 67.8042 22.4897 67.1657 22.4897 66.5C22.4897 65.8342 22.7542 65.1957 23.225 64.725C23.6957 64.2542 24.3342 63.9897 25 63.9897C25.6657 63.9897 26.3042 64.2542 26.775 64.725L27.5 65.475L30.725 62.225C30.9581 61.9919 31.2348 61.807 31.5393 61.6808C31.8439 61.5547 32.1703 61.4897 32.5 61.4897C32.8296 61.4897 33.156 61.5547 33.4606 61.6808C33.7652 61.807 34.0419 61.9919 34.275 62.225C34.5081 62.4581 34.693 62.7348 34.8191 63.0394C34.9453 63.3439 35.0102 63.6703 35.0102 64C35.0102 64.3296 34.9453 64.656 34.8191 64.9606C34.693 65.2652 34.5081 65.5419 34.275 65.775L29.275 70.775C29.0414 71.0067 28.7643 71.19 28.4597 71.3144C28.1551 71.4388 27.829 71.5019 27.5 71.5Z" fill="#77ACF1"/>
<path d="M55 49H42.5C41.837 49 41.2011 48.7366 40.7322 48.2678C40.2634 47.7989 40 47.163 40 46.5C40 45.837 40.2634 45.2011 40.7322 44.7322C41.2011 44.2634 41.837 44 42.5 44H55C55.663 44 56.2989 44.2634 56.7678 44.7322C57.2366 45.2011 57.5 45.837 57.5 46.5C57.5 47.163 57.2366 47.7989 56.7678 48.2678C56.2989 48.7366 55.663 49 55 49Z" fill="#77ACF1"/>
<path d="M27.5 51.5C27.171 51.5019 26.8448 51.4388 26.5402 51.3144C26.2356 51.19 25.9586 51.0067 25.725 50.775L23.225 48.275C22.7542 47.8042 22.4897 47.1657 22.4897 46.5C22.4897 45.8342 22.7542 45.1957 23.225 44.725C23.6957 44.2542 24.3342 43.9897 25 43.9897C25.6657 43.9897 26.3042 44.2542 26.775 44.725L27.5 45.475L30.725 42.225C31.1957 41.7542 31.8342 41.4897 32.5 41.4897C33.1657 41.4897 33.8042 41.7542 34.275 42.225C34.7457 42.6957 35.0102 43.3342 35.0102 44C35.0102 44.6657 34.7457 45.3042 34.275 45.775L29.275 50.775C29.0414 51.0067 28.7643 51.19 28.4597 51.3144C28.1551 51.4388 27.829 51.5019 27.5 51.5Z" fill="#77ACF1"/>
<path d="M60 61.5H70V69C70 69.663 69.7366 70.2989 69.2678 70.7678C68.7989 71.2366 68.163 71.5 67.5 71.5H62.5C61.837 71.5 61.2011 71.2366 60.7322 70.7678C60.2634 70.2989 60 69.663 60 69V61.5Z" fill="#77ACF1"/>
<path d="M72.5 89H57.5C55.5109 89 53.6032 88.2098 52.1967 86.8033C50.7902 85.3968 50 83.4891 50 81.5V66.5C50 64.5109 50.7902 62.6032 52.1967 61.1967C53.6032 59.7902 55.5109 59 57.5 59H72.5C74.4891 59 76.3968 59.7902 77.8033 61.1967C79.2098 62.6032 80 64.5109 80 66.5V81.5C80 83.4891 79.2098 85.3968 77.8033 86.8033C76.3968 88.2098 74.4891 89 72.5 89ZM57.5 64C56.837 64 56.2011 64.2634 55.7322 64.7322C55.2634 65.2011 55 65.837 55 66.5V81.5C55 82.163 55.2634 82.7989 55.7322 83.2678C56.2011 83.7366 56.837 84 57.5 84H72.5C73.163 84 73.7989 83.7366 74.2678 83.2678C74.7366 82.7989 75 82.163 75 81.5V66.5C75 65.837 74.7366 65.2011 74.2678 64.7322C73.7989 64.2634 73.163 64 72.5 64H57.5Z" fill="#04009A"/>
</g>
<defs>
<clipPath id="clip0_7_68">
<rect width="80" height="80" fill="white"/>
</clipPath>
</defs>
</svg>
