<svg width="80" height="80" viewBox="0 0 80 80" fill="none" xmlns="http://www.w3.org/2000/svg">
<path d="M40 70C41.3807 70 42.5 68.8807 42.5 67.5C42.5 66.1193 41.3807 65 40 65C38.6193 65 37.5 66.1193 37.5 67.5C37.5 68.8807 38.6193 70 40 70Z" fill="#77ACF1"/>
<path d="M52.5 70C53.8807 70 55 68.8807 55 67.5C55 66.1193 53.8807 65 52.5 65C51.1193 65 50 66.1193 50 67.5C50 68.8807 51.1193 70 52.5 70Z" fill="#77ACF1"/>
<path d="M15 70C16.3807 70 17.5 68.8807 17.5 67.5C17.5 66.1193 16.3807 65 15 65C13.6193 65 12.5 66.1193 12.5 67.5C12.5 68.8807 13.6193 70 15 70Z" fill="#77ACF1"/>
<path d="M27.5 70C28.8807 70 30 68.8807 30 67.5C30 66.1193 28.8807 65 27.5 65C26.1193 65 25 66.1193 25 67.5C25 68.8807 26.1193 70 27.5 70Z" fill="#77ACF1"/>
<path d="M35 27.5H45V35C45 35.663 44.7366 36.2989 44.2678 36.7678C43.7989 37.2366 43.163 37.5 42.5 37.5H37.5C36.837 37.5 36.2011 37.2366 35.7322 36.7678C35.2634 36.2989 35 35.663 35 35V27.5Z" fill="#77ACF1"/>
<path d="M65 70C66.3807 70 67.5 68.8807 67.5 67.5C67.5 66.1193 66.3807 65 65 65C63.6193 65 62.5 66.1193 62.5 67.5C62.5 68.8807 63.6193 70 65 70Z" fill="#77ACF1"/>
<path d="M37.5 50H35C34.337 50 33.7011 49.7366 33.2322 49.2678C32.7634 48.7989 32.5 48.163 32.5 47.5C32.5 46.837 32.7634 46.2011 33.2322 45.7322C33.7011 45.2634 34.337 45 35 45H37.5C38.163 45 38.7989 45.2634 39.2678 45.7322C39.7366 46.2011 40 46.837 40 47.5C40 48.163 39.7366 48.7989 39.2678 49.2678C38.7989 49.7366 38.163 50 37.5 50Z" fill="#04009A"/>
<path d="M67.5 55H57.05C57.3411 54.1983 57.4932 53.3529 57.5 52.5V32.5C57.5 30.5109 56.7098 28.6032 55.3033 27.1967C53.8968 25.7902 51.9891 25 50 25H30C28.0109 25 26.1032 25.7902 24.6967 27.1967C23.2902 28.6032 22.5 30.5109 22.5 32.5V52.5C22.5068 53.3529 22.6589 54.1983 22.95 55H12.5C9.18479 55 6.00537 56.317 3.66117 58.6612C1.31696 61.0054 0 64.1848 0 67.5C0 70.8152 1.31696 73.9946 3.66117 76.3388C6.00537 78.683 9.18479 80 12.5 80H67.5C70.8152 80 73.9946 78.683 76.3388 76.3388C78.683 73.9946 80 70.8152 80 67.5C80 64.1848 78.683 61.0054 76.3388 58.6612C73.9946 56.317 70.8152 55 67.5 55ZM27.5 52.5V32.5C27.5 31.837 27.7634 31.2011 28.2322 30.7322C28.7011 30.2634 29.337 30 30 30H50C50.663 30 51.2989 30.2634 51.7678 30.7322C52.2366 31.2011 52.5 31.837 52.5 32.5V52.5C52.5 53.163 52.2366 53.7989 51.7678 54.2678C51.2989 54.7366 50.663 55 50 55H30C29.337 55 28.7011 54.7366 28.2322 54.2678C27.7634 53.7989 27.5 53.163 27.5 52.5ZM67.5 75H12.5C10.5109 75 8.60322 74.2098 7.1967 72.8033C5.79018 71.3968 5 69.4891 5 67.5C5 65.5109 5.79018 63.6032 7.1967 62.1967C8.60322 60.7902 10.5109 60 12.5 60H67.5C69.4891 60 71.3968 60.7902 72.8033 62.1967C74.2098 63.6032 75 65.5109 75 67.5C75 69.4891 74.2098 71.3968 72.8033 72.8033C71.3968 74.2098 69.4891 75 67.5 75Z" fill="#04009A"/>
<path d="M62.05 11.55L50 8.125V5C50 3.67392 49.4732 2.40215 48.5355 1.46447C47.5979 0.526784 46.3261 0 45 0L35 0C33.6739 0 32.4022 0.526784 31.4645 1.46447C30.5268 2.40215 30 3.67392 30 5V8.125L17.95 11.55C16.3787 11.9965 14.9962 12.9438 14.0125 14.2478C13.0288 15.5519 12.4977 17.1415 12.5 18.775V27.5C12.5 28.163 12.7634 28.7989 13.2322 29.2678C13.7011 29.7366 14.337 30 15 30C15.663 30 16.2989 29.7366 16.7678 29.2678C17.2366 28.7989 17.5 28.163 17.5 27.5V18.775C17.4778 18.2171 17.643 17.6679 17.9692 17.2148C18.2954 16.7617 18.7639 16.4309 19.3 16.275L30 13.325V15C30 16.3261 30.5268 17.5979 31.4645 18.5355C32.4022 19.4732 33.6739 20 35 20H45C46.3261 20 47.5979 19.4732 48.5355 18.5355C49.4732 17.5979 50 16.3261 50 15V13.325L60.7 16.375C61.2361 16.5309 61.7046 16.8617 62.0308 17.3148C62.357 17.7679 62.5222 18.3171 62.5 18.875V27.5C62.5 28.163 62.7634 28.7989 63.2322 29.2678C63.7011 29.7366 64.337 30 65 30C65.663 30 66.2989 29.7366 66.7678 29.2678C67.2366 28.7989 67.5 28.163 67.5 27.5V18.775C67.5023 17.1415 66.9713 15.5519 65.9876 14.2478C65.0039 12.9438 63.6213 11.9965 62.05 11.55ZM45 15H35V5H45V15Z" fill="#04009A"/>
</svg>
