<svg width="80" height="80" viewBox="0 0 80 80" fill="none" xmlns="http://www.w3.org/2000/svg">
<path d="M45 25H42.5V22.5C42.5 21.837 42.2366 21.2011 41.7678 20.7322C41.2989 20.2634 40.663 20 40 20C39.337 20 38.7011 20.2634 38.2322 20.7322C37.7634 21.2011 37.5 21.837 37.5 22.5V25H35C34.337 25 33.7011 25.2634 33.2322 25.7322C32.7634 26.2011 32.5 26.837 32.5 27.5C32.5 28.163 32.7634 28.7989 33.2322 29.2678C33.7011 29.7366 34.337 30 35 30H37.5V32.5C37.5 33.163 37.7634 33.7989 38.2322 34.2678C38.7011 34.7366 39.337 35 40 35C40.663 35 41.2989 34.7366 41.7678 34.2678C42.2366 33.7989 42.5 33.163 42.5 32.5V30H45C45.663 30 46.2989 29.7366 46.7678 29.2678C47.2366 28.7989 47.5 28.163 47.5 27.5C47.5 26.837 47.2366 26.2011 46.7678 25.7322C46.2989 25.2634 45.663 25 45 25Z" fill="#77ACF1"/>
<path d="M56.2501 17.35L53.6251 13.425C54.5034 12.5005 54.9953 11.2752 55.0001 10V5C55.0001 3.67392 54.4733 2.40215 53.5356 1.46447C52.5979 0.526784 51.3261 0 50.0001 0L30.0001 0C28.674 0 27.4022 0.526784 26.4645 1.46447C25.5268 2.40215 25.0001 3.67392 25.0001 5V10C25.0048 11.2752 25.4967 12.5005 26.3751 13.425L23.7501 17.35C22.9293 18.5873 22.4943 20.0403 22.5001 21.525V42.5C22.5001 43.163 22.7634 43.7989 23.2323 44.2678C23.7011 44.7366 24.337 45 25.0001 45C25.6631 45 26.299 44.7366 26.7678 44.2678C27.2367 43.7989 27.5001 43.163 27.5001 42.5V21.525C27.4989 21.0264 27.647 20.5388 27.9251 20.125L31.3501 15H48.6501L52.0751 20.125C52.3532 20.5388 52.5012 21.0264 52.5001 21.525V42.5C52.5001 43.163 52.7635 43.7989 53.2323 44.2678C53.7011 44.7366 54.337 45 55.0001 45C55.6631 45 56.299 44.7366 56.7678 44.2678C57.2367 43.7989 57.5001 43.163 57.5001 42.5V21.525C57.5058 20.0403 57.0708 18.5873 56.2501 17.35ZM30.0001 5H50.0001V10H30.0001V5Z" fill="#77ACF1"/>
<path d="M70 59.55L72.175 45H77.5C78.163 45 78.7989 44.7366 79.2678 44.2678C79.7366 43.7989 80 43.163 80 42.5C80 41.837 79.7366 41.2011 79.2678 40.7322C78.7989 40.2634 78.163 40 77.5 40H2.5C1.83696 40 1.20107 40.2634 0.732233 40.7322C0.263392 41.2011 0 41.837 0 42.5C0 43.163 0.263392 43.7989 0.732233 44.2678C1.20107 44.7366 1.83696 45 2.5 45H7.825L10 59.55L1.125 65.425C0.639897 65.8158 0.318142 66.3735 0.22275 66.9891C0.127357 67.6046 0.265199 68.2336 0.60928 68.7529C0.953361 69.2721 1.47889 69.6442 2.08295 69.7963C2.68701 69.9484 3.32608 69.8694 3.875 69.575L10.7 65L11.6 71.375C11.9318 73.7652 13.1167 75.9548 14.9362 77.5399C16.7556 79.125 19.0869 79.9988 21.5 80H58.5C60.9228 80.0247 63.2722 79.1689 65.1115 77.5917C66.9508 76.0146 68.1549 73.8232 68.5 71.425L69.3 65L76.125 69.525C76.5216 69.8248 77.003 69.9911 77.5 70C78.0341 69.9959 78.5529 69.8208 78.9803 69.5004C79.4076 69.18 79.7212 68.7312 79.8749 68.2196C80.0286 67.7081 80.0145 67.1608 79.8346 66.6579C79.6546 66.155 79.3183 65.7229 78.875 65.425L70 59.55ZM65.375 56.475L48.25 45H67.125L65.375 56.475ZM12.875 45H31.75L14.525 56.475L12.875 45ZM63.45 70.7C63.2802 71.9014 62.6793 73 61.7594 73.7912C60.8395 74.5823 59.6633 75.0119 58.45 75H21.5C20.2867 75.0119 19.1105 74.5823 18.1906 73.7912C17.2707 73 16.6698 71.9014 16.5 70.7L15.25 61.975L40 45.5L64.7 61.975L63.45 70.7Z" fill="#04009A"/>
</svg>
