<svg width="68" height="80" viewBox="0 0 68 80" fill="none" xmlns="http://www.w3.org/2000/svg">
<path d="M48 15H43C43 13.6739 42.4732 12.4021 41.5355 11.4645C40.5979 10.5268 39.3261 10 38 10H35.5V7.5C35.5 5.51088 34.7098 3.60322 33.3033 2.1967C31.8968 0.790176 29.9891 0 28 0C26.0109 0 24.1032 0.790176 22.6967 2.1967C21.2902 3.60322 20.5 5.51088 20.5 7.5V10H18C16.6739 10 15.4021 10.5268 14.4645 11.4645C13.5268 12.4021 13 13.6739 13 15H8C6.01088 15 4.10322 15.7902 2.6967 17.1967C1.29018 18.6032 0.5 20.5109 0.5 22.5V72.5C0.5 74.4891 1.29018 76.3968 2.6967 77.8033C4.10322 79.2098 6.01088 80 8 80H30.5C31.163 80 31.7989 79.7366 32.2678 79.2678C32.7366 78.7989 33 78.163 33 77.5C33 76.837 32.7366 76.2011 32.2678 75.7322C31.7989 75.2634 31.163 75 30.5 75H8C7.33696 75 6.70107 74.7366 6.23223 74.2678C5.76339 73.7989 5.5 73.163 5.5 72.5V22.5C5.5 21.837 5.76339 21.2011 6.23223 20.7322C6.70107 20.2634 7.33696 20 8 20H13C13 21.3261 13.5268 22.5979 14.4645 23.5355C15.4021 24.4732 16.6739 25 18 25H38C39.3261 25 40.5979 24.4732 41.5355 23.5355C42.4732 22.5979 43 21.3261 43 20H48C48.663 20 49.2989 20.2634 49.7678 20.7322C50.2366 21.2011 50.5 21.837 50.5 22.5V42.5C50.5 43.163 50.7634 43.7989 51.2322 44.2678C51.7011 44.7366 52.337 45 53 45C53.663 45 54.2989 44.7366 54.7678 44.2678C55.2366 43.7989 55.5 43.163 55.5 42.5V22.5C55.5 20.5109 54.7098 18.6032 53.3033 17.1967C51.8968 15.7902 49.9891 15 48 15ZM25.5 7.5C25.5 6.83696 25.7634 6.20107 26.2322 5.73223C26.7011 5.26339 27.337 5 28 5C28.663 5 29.2989 5.26339 29.7678 5.73223C30.2366 6.20107 30.5 6.83696 30.5 7.5V10H25.5V7.5ZM18 20V15H38V17.5V20H18Z" fill="#04009A"/>
<path d="M30.5 60C29.9218 59.9966 29.3626 59.793 28.9177 59.4237C28.4728 59.0544 28.1696 58.5423 28.0599 57.9746C27.9501 57.4069 28.0405 56.8187 28.3157 56.3102C28.5909 55.8017 29.0338 55.4042 29.5691 55.1856C30.1044 54.967 30.6989 54.9406 31.2514 55.1111C31.8039 55.2816 32.2803 55.6382 32.5993 56.1204C32.9184 56.6027 33.0604 57.1805 33.0013 57.7557C32.9422 58.3309 32.6855 58.8678 32.275 59.275C31.7959 59.7318 31.1619 59.9907 30.5 60Z" fill="#77ACF1"/>
<path d="M15.5 62.5C15.171 62.5019 14.8448 62.4388 14.5402 62.3144C14.2356 62.19 13.9586 62.0067 13.725 61.775L11.225 59.275C10.7542 58.8042 10.4897 58.1657 10.4897 57.5C10.4897 56.8342 10.7542 56.1957 11.225 55.725C11.6957 55.2542 12.3342 54.9897 13 54.9897C13.6657 54.9897 14.3042 55.2542 14.775 55.725L15.5 56.475L18.725 53.225C18.9581 52.9919 19.2348 52.807 19.5393 52.6808C19.8439 52.5547 20.1703 52.4897 20.5 52.4897C20.8296 52.4897 21.156 52.5547 21.4606 52.6808C21.7652 52.807 22.0419 52.9919 22.275 53.225C22.5081 53.4581 22.693 53.7348 22.8191 54.0394C22.9453 54.3439 23.0102 54.6703 23.0102 55C23.0102 55.3296 22.9453 55.656 22.8191 55.9606C22.693 56.2652 22.5081 56.5419 22.275 56.775L17.275 61.775C17.0414 62.0067 16.7643 62.19 16.4597 62.3144C16.1551 62.4388 15.829 62.5019 15.5 62.5Z" fill="#77ACF1"/>
<path d="M43 40H30.5C29.837 40 29.2011 39.7366 28.7322 39.2678C28.2634 38.7989 28 38.163 28 37.5C28 36.837 28.2634 36.2011 28.7322 35.7322C29.2011 35.2634 29.837 35 30.5 35H43C43.663 35 44.2989 35.2634 44.7678 35.7322C45.2366 36.2011 45.5 36.837 45.5 37.5C45.5 38.163 45.2366 38.7989 44.7678 39.2678C44.2989 39.7366 43.663 40 43 40Z" fill="#77ACF1"/>
<path d="M15.5 42.5C15.171 42.5019 14.8448 42.4388 14.5402 42.3144C14.2356 42.19 13.9586 42.0067 13.725 41.775L11.225 39.275C10.7542 38.8042 10.4897 38.1657 10.4897 37.5C10.4897 36.8342 10.7542 36.1957 11.225 35.725C11.6957 35.2542 12.3342 34.9897 13 34.9897C13.6657 34.9897 14.3042 35.2542 14.775 35.725L15.5 36.475L18.725 33.225C19.1957 32.7542 19.8342 32.4897 20.5 32.4897C21.1657 32.4897 21.8042 32.7542 22.275 33.225C22.7457 33.6957 23.0102 34.3342 23.0102 35C23.0102 35.6657 22.7457 36.3042 22.275 36.775L17.275 41.775C17.0414 42.0067 16.7643 42.19 16.4597 42.3144C16.1551 42.4388 15.829 42.5019 15.5 42.5Z" fill="#77ACF1"/>
<path d="M48 52.5H58V60C58 60.663 57.7366 61.2989 57.2678 61.7678C56.7989 62.2366 56.163 62.5 55.5 62.5H50.5C49.837 62.5 49.2011 62.2366 48.7322 61.7678C48.2634 61.2989 48 60.663 48 60V52.5Z" fill="#77ACF1"/>
<path d="M60.5 80H45.5C43.5109 80 41.6032 79.2098 40.1967 77.8033C38.7902 76.3968 38 74.4891 38 72.5V57.5C38 55.5109 38.7902 53.6032 40.1967 52.1967C41.6032 50.7902 43.5109 50 45.5 50H60.5C62.4891 50 64.3968 50.7902 65.8033 52.1967C67.2098 53.6032 68 55.5109 68 57.5V72.5C68 74.4891 67.2098 76.3968 65.8033 77.8033C64.3968 79.2098 62.4891 80 60.5 80ZM45.5 55C44.837 55 44.2011 55.2634 43.7322 55.7322C43.2634 56.2011 43 56.837 43 57.5V72.5C43 73.163 43.2634 73.7989 43.7322 74.2678C44.2011 74.7366 44.837 75 45.5 75H60.5C61.163 75 61.7989 74.7366 62.2678 74.2678C62.7366 73.7989 63 73.163 63 72.5V57.5C63 56.837 62.7366 56.2011 62.2678 55.7322C61.7989 55.2634 61.163 55 60.5 55H45.5Z" fill="#04009A"/>
</svg>
