<svg width="80" height="80" viewBox="0 0 80 80" fill="none" xmlns="http://www.w3.org/2000/svg">
<path d="M77.5 75V37.5C77.5 27.5544 73.5491 18.0161 66.5165 10.9835C59.4839 3.95088 49.9456 0 40 0C30.0544 0 20.5161 3.95088 13.4835 10.9835C6.45088 18.0161 2.5 27.5544 2.5 37.5V75C1.83696 75 1.20107 75.2634 0.732233 75.7322C0.263392 76.2011 0 76.837 0 77.5C0 78.163 0.263392 78.7989 0.732233 79.2678C1.20107 79.7366 1.83696 80 2.5 80H77.5C78.163 80 78.7989 79.7366 79.2678 79.2678C79.7366 78.7989 80 78.163 80 77.5C80 76.837 79.7366 76.2011 79.2678 75.7322C78.7989 75.2634 78.163 75 77.5 75ZM45 60H35V50H45V60ZM32.5 65H37.5V75H27.5V65H32.5ZM42.5 75V65H52.5V75H42.5ZM57.5 75V62.5C57.5 61.837 57.2366 61.2011 56.7678 60.7322C56.2989 60.2634 55.663 60 55 60H50V47.5C50 46.837 49.7366 46.2011 49.2678 45.7322C48.7989 45.2634 48.163 45 47.5 45H32.5C31.837 45 31.2011 45.2634 30.7322 45.7322C30.2634 46.2011 30 46.837 30 47.5V60H25C24.337 60 23.7011 60.2634 23.2322 60.7322C22.7634 61.2011 22.5 61.837 22.5 62.5V75H17.5V40H62.5V75H57.5ZM67.5 75V37.5C67.5 36.837 67.2366 36.2011 66.7678 35.7322C66.2989 35.2634 65.663 35 65 35H15C14.337 35 13.7011 35.2634 13.2322 35.7322C12.7634 36.2011 12.5 36.837 12.5 37.5V75H7.5V37.5C7.5 28.8805 10.9241 20.614 17.019 14.519C23.114 8.4241 31.3805 5 40 5C48.6195 5 56.886 8.4241 62.981 14.519C69.0759 20.614 72.5 28.8805 72.5 37.5V75H67.5Z" fill="#04009A"/>
<path d="M50 12.5C50 11.837 49.7366 11.2011 49.2678 10.7322C48.7989 10.2634 48.163 10 47.5 10H32.5C32.1733 10.0039 31.8506 10.0719 31.55 10.2C30.9391 10.4537 30.4537 10.9391 30.2 11.55C30.0719 11.8506 30.0039 12.1733 30 12.5V27.5C30 28.163 30.2634 28.7989 30.7322 29.2678C31.2011 29.7366 31.837 30 32.5 30H47.5C47.8267 29.996 48.1494 29.9281 48.45 29.8C49.0609 29.5463 49.5463 29.0609 49.8 28.45C49.9281 28.1494 49.996 27.8267 50 27.5V12.5ZM45 21.475L38.525 15H45V21.475ZM35 18.525L41.475 25H35V18.525Z" fill="#77ACF1"/>
</svg>
